<?xml version="1.0" encoding="utf-8"?>
<!-- Generator: Adobe Illustrator 16.0.0, SVG Export Plug-In . SVG Version: 6.00 Build 0)  -->
<!DOCTYPE svg PUBLIC "-//W3C//DTD SVG 1.1//EN" "http://www.w3.org/Graphics/SVG/1.1/DTD/svg11.dtd">
<svg version="1.1" id="Layer_1" xmlns="http://www.w3.org/2000/svg" xmlns:xlink="http://www.w3.org/1999/xlink" x="0px" y="0px"
	 width="202px" height="202px" viewBox="0 0 202 202" enable-background="new 0 0 202 202" xml:space="preserve">
<g>
	<circle fill="#267C58" cx="101" cy="101" r="100"/>
	<g>
		<path fill="#FFFFFF" d="M101.119,182.521c-17.169,0.082-31.295-13.965-31.383-31.205c-0.088-17.17,13.956-31.326,31.173-31.426
			c17.229-0.101,31.438,14.03,31.46,31.289C132.391,168.384,118.376,182.439,101.119,182.521z M102.82,143.795
			c0.018,0.15,0.035,0.301,0.052,0.449c2.29,0,4.579,0.012,6.868-0.018c0.238-0.004,0.58-0.188,0.695-0.391
			c1.153-2.013,2.271-4.047,3.613-6.461c-1.001,0.479-1.584,0.757-2.277,1.089c-0.746-1.271-1.396-2.532-2.207-3.681
			c-0.392-0.551-1.078-1.227-1.655-1.249c-3.002-0.125-6.013-0.06-8.834-0.06c1.828,3.07,3.635,6.106,5.471,9.19
			C103.864,143.114,103.342,143.455,102.82,143.795z M85.458,147.848c-0.772,1.356-1.523,2.514-2.092,3.75
			c-0.285,0.62-0.555,1.562-0.288,2.069c1.411,2.706,2.995,5.323,4.372,7.715c1.736-3.116,3.456-6.205,5.193-9.325
			c0.835,0.403,1.468,0.709,2.443,1.178c-1.292-2.33-2.391-4.332-3.516-6.314c-0.129-0.229-0.402-0.533-0.612-0.537
			c-2.438-0.037-4.877-0.023-7.316-0.023c-0.003,0.11-0.006,0.223-0.009,0.334C84.2,147.049,84.767,147.408,85.458,147.848z
			 M106.456,155.063c-1.401,2.328-2.569,4.242-3.696,6.181c-0.141,0.241-0.189,0.688-0.062,0.911c1.155,2.019,2.36,4.006,3.75,6.337
			c0.134-1.063,0.216-1.712,0.313-2.488c1.37,0,2.691,0.089,3.992-0.034c0.729-0.068,1.745-0.277,2.074-0.785
			c1.654-2.556,3.127-5.229,4.62-7.783c-3.632,0-7.122,0-10.712,0C106.669,156.824,106.59,156.166,106.456,155.063z M99.906,157.711
			c-0.368-0.076-0.511-0.133-0.653-0.133c-2.008-0.012-4.015-0.02-6.021-0.021c-2.757-0.002-2.884,0.086-3.927,2.664
			c-1.158,2.863,0.492,5.584,3.582,5.752c2.001,0.108,4.015,0.066,6.019-0.014c0.345-0.014,0.946-0.549,0.956-0.857
			C99.942,162.666,99.906,160.227,99.906,157.711z M96.188,146.041c1.45-2.507,2.834-4.868,4.17-7.256
			c0.159-0.284,0.184-0.793,0.035-1.069c-0.489-0.899-0.998-1.817-1.663-2.589c-1.552-1.798-4.451-1.884-5.807-0.005
			c-1.501,2.078-2.689,4.384-4.053,6.655C91.376,143.238,93.7,144.593,96.188,146.041z M107.904,148.673
			c1.183,2.052,2.443,3.838,3.285,5.806c0.861,2.019,2.267,2.301,4.104,1.996c0.191-0.033,0.391-0.055,0.582-0.088
			c2.375-0.412,4.055-2.875,3.105-5.046c-1.022-2.352-2.463-4.522-3.762-6.846C112.695,145.938,110.364,147.27,107.904,148.673z"/>
		<path fill="#FFFFFF" d="M153.126,82.791c-0.449,5.414-0.892,10.763-1.335,16.113c-0.107,0.054-0.215,0.107-0.324,0.161
			c-7.494-9.398-14.986-18.798-22.625-28.378c9.096-8.644,17.363-18.02,26.934-26.047c0.117,0.061,0.235,0.12,0.354,0.181
			c-0.063,1.15-0.11,2.305-0.202,3.453c-0.26,3.325-0.47,6.656-0.841,9.97c-0.149,1.348,0.321,1.886,1.537,2.292
			c5.051,1.685,9.81,3.983,14.085,7.192c9.693,7.274,13.116,17.001,11.1,28.78c-1.199,6.996-3.977,13.419-7.51,19.521
			c-7.31,12.623-16.751,23.439-27.978,32.72c-0.548,0.453-1.25,0.72-1.882,1.073c-0.098-0.135-0.193-0.268-0.291-0.399
			c0.311-0.353,0.629-0.694,0.929-1.054c9.905-11.905,17.088-25.206,20.446-40.407c1.033-4.682,1.219-9.44-0.172-14.129
			c-1.682-5.672-5.709-8.965-11.097-10.853C153.939,82.87,153.589,82.865,153.126,82.791z"/>
		<path fill="#FFFFFF" d="M71.125,48.508C59.202,56.763,49.994,67.04,43.131,79.434c-2.85,5.149-4.835,10.608-4.688,16.646
			c0.118,4.77,1.914,8.763,5.422,11.968c1.07,0.979,2.254,1.832,3.554,2.877c1.743-5.323,3.394-10.368,5.154-15.749
			c0.39,0.757,0.622,1.161,0.813,1.585c4.724,10.446,9.428,20.902,14.188,31.335c0.499,1.094,0.325,1.577-0.722,2.157
			c-7.847,4.351-15.637,8.802-23.493,13.136c-2.301,1.271-4.757,2.258-7.457,3.521c0.167-0.737,0.229-1.146,0.353-1.537
			c1.227-3.824,2.372-7.68,3.746-11.449c0.501-1.377,0.11-1.992-0.938-2.726c-4.768-3.334-9.121-7.136-12.71-11.745
			c-3.461-4.446-5.901-9.335-6.554-15.031c-0.692-6.043,0.874-11.574,3.688-16.814c3.965-7.386,9.708-13.276,16.02-18.65
			c9.308-7.923,19.65-14.309,30.312-20.207C70.187,48.545,70.687,48.582,71.125,48.508z"/>
		<path fill="#FFFFFF" d="M93.009,19.499c1.545,0,2.814-0.071,4.066,0.048c0.322,0.03,0.804,0.628,0.843,1.003
			c0.112,1.107,0.04,2.232,0.04,3.441c2.368,0.107,4.603,0.207,7.054,0.317c0-1.209,0.041-2.42-0.014-3.626
			c-0.042-0.9,0.316-1.233,1.193-1.203c1.164,0.04,2.328,0.01,3.654,0.01c0,1.716,0.055,3.229-0.021,4.737
			c-0.053,1.007,0.26,1.532,1.223,1.998c5.063,2.449,7.971,6.504,8.657,12.105c0.063,0.524,0.008,1.063,0.008,1.81
			c-2.03,0-4.006,0-6.017,0c-0.314-1.21-0.491-2.596-1.041-3.812c-0.545-1.204-1.463-2.241-2.219-3.351
			c-0.151,0.053-0.306,0.104-0.459,0.155c-0.043,0.445-0.123,0.891-0.125,1.337c-0.028,4.121-0.021,8.243-0.084,12.364
			c-0.016,0.992,0.317,1.464,1.271,1.806c4.484,1.613,8.095,4.264,9.581,9.024c1.622,5.195-0.033,13.296-8.006,16.73
			c-2.308,0.994-3.167,2.127-2.789,4.471c0.12,0.753,0.021,1.542,0.021,2.507c-0.923,0-1.688,0-2.457,0c-0.726,0-1.449,0-2.354,0
			c0-1.653,0-3.146,0-4.723c-2.412,0-4.641,0-7.075,0c0,1.189-0.037,2.352,0.012,3.511c0.035,0.853-0.204,1.275-1.147,1.226
			c-1.165-0.063-2.336-0.015-3.826-0.015c0-1.534-0.09-2.944,0.026-4.338c0.108-1.283-0.4-1.864-1.551-2.392
			c-6.221-2.848-9.676-7.745-10.446-14.54c-0.028-0.241-0.031-0.488-0.026-0.732c0.002-0.092,0.061-0.182,0.168-0.485
			c1.881-0.136,3.852-0.278,5.946-0.43c0.496,4.187,1.932,7.679,5.881,9.864c0.055-0.609,0.124-1.035,0.126-1.461
			c0.028-4.955,0.019-9.911,0.088-14.866c0.016-1.1-0.332-1.643-1.401-2.026c-4.606-1.649-7.888-4.608-8.59-9.68
			c-0.918-6.64,1.829-11.577,7.982-14.339c1.367-0.612,1.983-1.286,1.829-2.782C92.914,22.014,93.009,20.839,93.009,19.499z
			 M98.063,51.834c0,6.135,0,12.141,0,18.296c2.331,0,4.56,0,6.832,0c0-5.657,0-11.167,0-16.646
			C102.561,52.92,100.341,52.385,98.063,51.834z M104.896,46.994c0-5.536,0-10.845,0-16.328c-2.319-0.112-4.538-0.22-6.83-0.331
			c0,5.137,0,9.973,0,14.903C100.33,45.819,102.574,46.396,104.896,46.994z M109.918,68.566c3.143-1.009,5.021-4.066,4.864-7.771
			c-0.107-2.536-2.24-4.994-4.864-5.534C109.918,59.665,109.918,64.055,109.918,68.566z M93.019,32.186
			c-2.854,1.454-3.865,3.469-3.574,6.88c0.185,2.16,1.428,3.713,3.574,4.369C93.019,39.719,93.019,36.034,93.019,32.186z"/>
	</g>
</g>
</svg>
